# 3ds Max Wavefront OBJ Exporter v0.97b - (c)2007 guruware
# File Created: 01.02.2011 16:13:09

mtllib ad_sign1.mtl

#
# object Box01
#

v  -0.142767 -0.014500 0.437703
v  -0.142767 -0.014500 0.958394
v  0.134751 -0.014500 0.958394
v  0.134751 -0.014500 0.437703
v  -0.142767 -0.037082 0.437703
v  0.134751 -0.037082 0.437703
v  0.134751 -0.037082 0.958394
v  -0.142767 -0.037082 0.958394
v  0.128089 -0.082217 0.157663
v  0.071956 -0.136900 0.157663
v  -0.076228 -0.136900 0.157663
v  0.128089 0.034405 0.157663
v  -0.138878 -0.080956 0.157663
v  0.073671 0.082618 0.157663
v  -0.138878 0.033094 0.157663
v  -0.077744 0.082618 0.157663
v  0.161791 -0.000000 0.410663
v  0.161791 -0.000000 0.985434
v  0.161791 -0.051582 0.985434
v  0.161791 -0.051582 0.410663
v  -0.169807 -0.000000 0.985434
v  -0.169807 -0.051582 0.985434
v  -0.169807 -0.000000 0.410663
v  -0.169807 -0.051582 0.410663
v  0.025628 -0.051582 0.410663
v  0.025628 -0.038094 0.410663
v  0.025628 -0.012215 0.410663
v  0.025628 -0.000000 0.410663
v  -0.033645 -0.000000 0.410663
v  -0.033645 -0.012212 0.410663
v  -0.033645 -0.038096 0.410663
v  -0.033645 -0.051582 0.410663
v  -0.018542 -0.051582 0.410663
v  0.011782 -0.051582 0.410663
v  -0.018569 -0.000000 0.410663
v  0.011842 -0.000000 0.410663
v  0.008808 -0.008000 0.410663
v  -0.015735 -0.008000 0.410663
v  0.017628 -0.015815 0.410663
v  0.017628 -0.034718 0.410663
v  0.008530 -0.043582 0.410663
v  -0.015490 -0.043582 0.410663
v  -0.025645 -0.034514 0.410663
v  -0.025645 -0.016027 0.410663
v  0.008808 -0.008000 0.191144
v  -0.015735 -0.008000 0.191144
v  0.017628 -0.015815 0.191144
v  0.017628 -0.034718 0.191144
v  0.008530 -0.043582 0.191144
v  -0.015490 -0.043582 0.191144
v  -0.025645 -0.034514 0.191144
v  -0.025645 -0.016027 0.191144
v  0.073671 0.082618 0.169163
v  -0.077744 0.082618 0.169163
v  0.128089 0.034405 0.169163
v  0.128089 -0.082217 0.169163
v  0.071956 -0.136900 0.169163
v  -0.076228 -0.136900 0.169163
v  -0.138878 -0.080956 0.169163
v  -0.138878 0.033094 0.169163
v  -0.142767 -0.000000 0.958394
v  -0.142767 -0.000000 0.437703
v  0.134751 -0.000000 0.958394
v  0.134751 -0.000000 0.437703
v  0.134751 -0.051582 0.437703
v  -0.142767 -0.051582 0.437703
v  0.134751 -0.051582 0.958394
v  -0.142767 -0.051582 0.958394
# 68 vertices

vn 0.000000 1.000000 0.000000
vn 0.000000 -1.000000 -0.000000
vn 0.000000 0.000000 -1.000000
vn 1.000000 0.000000 0.000000
vn 0.000000 -0.000000 1.000000
vn -1.000000 0.000000 0.000000
vn 0.663141 0.748495 0.000000
vn 0.697792 -0.716301 -0.000000
vn -0.666056 -0.745902 -0.000000
vn -0.629459 0.777034 0.000000
vn 0.000000 0.235728 0.971819
vn 0.128994 0.145597 0.980899
vn 0.195163 -0.000000 0.980771
vn 0.135427 -0.139019 0.980986
vn 0.000000 -0.229271 0.973363
vn -0.130444 -0.146081 0.980635
vn -0.190561 -0.000000 0.981675
vn -0.123944 0.153002 0.980423
vn 0.663141 0.748494 0.000000
# 19 vertex normals

vt 1.000000 0.000000 0.000000
vt 1.000000 1.000000 0.000000
vt 0.000000 1.000000 0.000000
vt 0.000000 0.000000 0.000000
vt 0.589375 0.743106 0.000000
vt 0.547619 1.000000 0.000000
vt 0.458926 1.000000 0.000000
vt 0.589375 0.236798 0.000000
vt 0.410625 0.738545 0.000000
vt 0.550457 0.000000 0.000000
vt 0.410625 0.250482 0.000000
vt 0.456088 0.000000 0.000000
vt 0.589375 1.000000 0.000000
vt 0.589375 0.000000 0.000000
vt 0.410625 0.000000 0.000000
vt 0.410625 1.000000 0.000000
vt 0.543912 0.000000 0.000000
vt 0.449543 0.000000 0.000000
vt 0.547619 0.000000 0.000000
vt 0.458926 0.000000 0.000000
vt 0.422055 0.000000 0.000000
vt 0.037687 0.000000 0.000000
vt 0.013103 0.000000 0.000000
vt 0.464611 0.000000 0.000000
vt 0.600187 1.000000 0.000000
vt 1.035650 1.000000 0.000000
vt 0.949174 0.000001 0.000000
vt 0.555906 1.000000 0.000000
# 28 texture coords

g Box01
usemtl wire_143225087
s 2
f 1/1/1 2/2/1 3/3/1 4/4/1 
s 4
f 5/4/2 6/1/2 7/2/2 8/3/2 
s 8
f 9/5/3 10/6/3 11/7/3 12/8/3 
f 12/8/3 11/7/3 13/9/3 14/10/3 
f 14/10/3 13/9/3 15/11/3 16/12/3 
s 16
f 17/4/4 18/1/4 19/2/4 20/3/4 
s 32
f 18/4/5 21/1/5 22/2/5 19/3/5 
s 64
f 21/4/6 23/1/6 24/2/6 22/3/6 
s 8
f 17/1/3 20/2/3 25/13/3 26/5/3 
f 17/1/3 26/5/3 27/8/3 28/14/3 
f 24/3/3 23/4/3 29/15/3 30/11/3 
f 24/3/3 30/11/3 31/9/3 32/16/3 
f 33/7/3 32/16/3 31/9/3 
f 26/5/3 25/13/3 34/6/3 
f 30/11/3 29/15/3 35/12/3 
f 36/10/3 28/14/3 27/8/3 
s off
f 35/17/3 36/18/3 37/10/3 38/12/3 
f 36/10/3 27/8/3 39/8/3 37/10/3 
f 27/8/3 26/5/3 40/5/3 39/8/3 
f 26/5/3 34/6/3 41/6/3 40/5/3 
f 34/19/3 33/20/3 42/7/3 41/6/3 
f 33/7/3 31/9/3 43/9/3 42/7/3 
f 31/9/3 30/11/3 44/11/3 43/9/3 
f 30/11/3 35/12/3 38/12/3 44/11/3 
f 38/12/1 37/10/1 45/10/1 46/12/1 
f 37/10/7 39/8/7 47/8/7 45/10/7 
f 39/8/4 40/5/4 48/5/4 47/8/4 
f 40/5/8 41/6/8 49/6/8 48/5/8 
f 41/6/2 42/7/2 50/7/2 49/6/2 
f 42/7/9 43/9/9 51/9/9 50/7/9 
f 43/9/6 44/11/6 52/11/6 51/9/6 
f 44/11/10 38/12/10 46/12/10 52/11/10 
f 46/12/11 45/10/11 53/10/11 54/12/11 
f 45/10/12 47/8/12 55/8/12 53/10/12 
f 47/8/13 48/5/13 56/5/13 55/8/13 
f 48/5/14 49/6/14 57/6/14 56/5/14 
f 49/6/15 50/7/15 58/7/15 57/6/15 
f 50/7/16 51/9/16 59/9/16 58/7/16 
f 51/9/17 52/11/17 60/11/17 59/9/17 
f 52/11/18 46/12/18 54/12/18 60/11/18 
f 54/12/1 53/10/1 14/10/1 16/12/1 
f 53/10/19 55/8/19 12/8/19 14/10/19 
f 55/8/4 56/5/4 9/5/4 12/8/4 
f 56/5/8 57/6/8 10/6/8 9/5/8 
f 57/6/2 58/7/2 11/7/2 10/6/2 
f 58/7/9 59/9/9 13/9/9 11/7/9 
f 59/9/6 60/11/6 15/11/6 13/9/6 
f 60/11/10 54/12/10 16/12/10 15/11/10 
f 23/1/1 21/4/1 61/2/1 62/1/1 
f 21/1/1 18/4/1 63/3/1 61/2/1 
f 18/1/1 17/4/1 64/4/1 63/3/1 
f 29/21/1 23/22/1 62/23/1 35/24/1 
f 36/10/1 35/24/1 62/23/1 28/14/1 
f 17/1/1 28/14/1 62/23/1 64/4/1 
f 25/25/2 20/26/2 65/27/2 34/28/2 
f 33/7/2 34/28/2 65/27/2 32/16/2 
f 24/3/2 32/16/2 65/27/2 66/4/2 
f 20/3/2 19/2/2 67/2/2 65/1/2 
f 19/3/2 22/2/2 68/3/2 67/2/2 
f 22/3/2 24/2/2 66/4/2 68/3/2 
f 62/1/4 61/2/4 2/2/4 1/1/4 
f 61/2/3 63/3/3 3/3/3 2/2/3 
f 63/3/6 64/4/6 4/4/6 3/3/6 
f 64/4/5 62/23/5 1/1/5 4/4/5 
f 66/4/5 65/27/5 6/1/5 5/4/5 
f 65/1/6 67/2/6 7/2/6 6/1/6 
f 67/2/3 68/3/3 8/3/3 7/2/3 
f 68/3/4 66/4/4 5/4/4 8/3/4 
# 64 polygons - 4 triangles

