# 3ds Max Wavefront OBJ Exporter v0.97b - (c)2007 guruware
# File Created: 04.02.2011 19:32:40

mtllib barrier1.mtl

#
# object Barrier1
#

v  -0.006415 0.079416 0.043311
v  -0.006415 0.090436 0.043311
v  -0.038456 0.090436 -0.043311
v  -0.038456 0.079416 -0.043311
v  0.038482 0.090436 -0.043311
v  0.006437 0.090436 0.043311
v  0.006437 0.079416 0.043311
v  0.038482 0.079416 -0.043311
v  0.003116 0.079416 0.019002
v  0.003042 0.079416 0.016033
v  0.009597 0.079416 0.016032
v  0.003135 0.079416 0.037124
v  0.003135 0.090436 0.037124
v  -0.003109 0.090436 0.037124
v  0.032078 0.090436 -0.043311
v  0.019388 0.090436 -0.011374
v  0.016389 0.090436 -0.003682
v  0.009596 0.090436 0.016032
v  -0.009566 0.090436 0.016034
v  -0.016361 0.090436 -0.003677
v  -0.019361 0.090436 -0.011370
v  -0.032144 0.090436 -0.043311
v  -0.032144 0.079416 -0.043311
v  -0.019360 0.079416 -0.011372
v  -0.016360 0.079416 -0.003680
v  -0.009566 0.079416 0.016033
v  -0.003109 0.079416 0.037124
v  0.016392 0.079416 -0.003681
v  0.019391 0.079416 -0.011373
v  0.032078 0.079416 -0.043311
v  -0.003102 0.079416 0.018888
v  -0.003101 0.079416 0.016033
v  -0.003119 0.090436 0.018888
v  -0.003121 0.090436 0.016033
v  0.003025 0.090436 0.018888
v  0.002997 0.090436 0.016033
v  0.003025 0.102900 0.018888
v  -0.003119 0.102900 0.018888
v  -0.003109 0.102900 0.037124
v  0.003135 0.102900 0.037124
v  0.006415 -0.079395 0.043311
v  0.006415 -0.090436 0.043311
v  0.038456 -0.090436 -0.043311
v  0.038456 -0.079395 -0.043311
v  -0.038482 -0.090436 -0.043311
v  -0.006437 -0.090436 0.043311
v  -0.006437 -0.079395 0.043311
v  -0.038482 -0.079395 -0.043311
v  -0.003061 -0.079395 0.018888
v  -0.003042 -0.079395 0.016033
v  -0.009597 -0.079395 0.016032
v  -0.003135 -0.079395 0.037124
v  -0.003135 -0.090436 0.037124
v  0.003109 -0.090436 0.037124
v  -0.032078 -0.090436 -0.043311
v  -0.019388 -0.090436 -0.011374
v  -0.016389 -0.090436 -0.003682
v  -0.009596 -0.090436 0.016032
v  0.009566 -0.090436 0.016034
v  0.016361 -0.090436 -0.003677
v  0.019361 -0.090436 -0.011370
v  0.032144 -0.090436 -0.043311
v  0.032144 -0.079395 -0.043311
v  0.019360 -0.079395 -0.011372
v  0.016361 -0.079395 -0.003680
v  0.009566 -0.079395 0.016033
v  0.003109 -0.079395 0.037124
v  -0.016392 -0.079395 -0.003681
v  -0.019391 -0.079395 -0.011373
v  -0.032078 -0.079395 -0.043311
v  0.003108 -0.079395 0.019002
v  0.003101 -0.079395 0.016033
v  0.003119 -0.090436 0.018888
v  0.003121 -0.090436 0.016033
v  -0.003025 -0.090436 0.018888
v  -0.002997 -0.090436 0.016033
v  -0.003025 -0.102900 0.018888
v  0.003119 -0.102900 0.018888
v  0.003109 -0.102900 0.037124
v  -0.003135 -0.102900 0.037124
# 80 vertices

vn -0.937892 -0.000001 0.346926
vn -0.937892 0.000000 0.346926
vn 0.937881 0.000000 0.346957
vn 0.000000 0.000000 1.000000
vn -0.000001 -1.000000 -0.000001
vn -0.000002 -1.000000 -0.000004
vn 0.000000 -1.000000 0.000000
vn 0.000003 1.000000 0.000001
vn 0.000002 1.000000 0.000001
vn 0.000000 1.000000 0.000001
vn 0.000000 1.000000 0.000000
vn 0.000003 1.000000 -0.000002
vn -0.000001 -1.000000 0.000000
vn -0.000002 -1.000000 -0.000001
vn -0.000003 -1.000000 0.000000
vn 0.000000 1.000000 -0.000001
vn 0.000000 -1.000000 -0.000001
vn 0.000000 -1.000000 0.000001
vn 0.928396 0.000123 -0.371592
vn 0.928408 0.000025 -0.371563
vn 0.928411 0.000000 -0.371556
vn 0.928399 0.000099 -0.371585
vn 0.000000 0.000000 -1.000000
vn -0.929359 0.000000 -0.369177
vn -0.929337 -0.000183 -0.369232
vn -0.929332 -0.000228 -0.369245
vn -0.929354 -0.000045 -0.369191
vn 0.000002 1.000000 0.000000
vn 0.000002 1.000000 -0.000001
vn 0.000001 1.000000 0.000000
vn 0.000004 1.000000 -0.000001
vn 0.000003 1.000000 -0.000001
vn -0.000026 -0.000092 -1.000000
vn -0.000099 0.000165 -1.000000
vn -0.000115 0.000219 -1.000000
vn -0.000042 -0.000037 -1.000000
vn 0.000176 0.000119 1.000000
vn 0.000068 -0.000202 1.000000
vn 0.000040 -0.000285 1.000000
vn 0.000148 0.000036 1.000000
vn 0.945405 0.000148 -0.325899
vn 0.945414 0.000094 -0.325872
vn 0.945418 0.000070 -0.325860
vn 0.945409 0.000124 -0.325887
vn -0.945414 -0.000294 -0.325870
vn -0.945433 -0.000185 -0.325816
vn -0.945442 -0.000137 -0.325792
vn -0.945423 -0.000245 -0.325846
vn -0.000035 -0.000055 -1.000000
vn -0.000051 -0.000015 -1.000000
vn -0.000121 0.000026 -1.000000
vn -0.000102 -0.000016 -1.000000
vn -0.000048 0.000045 -1.000000
vn -0.000122 0.000088 -1.000000
vn -0.000067 0.000088 -1.000000
vn -0.000143 0.000132 -1.000000
vn 0.937892 0.000000 0.346926
vn 0.937892 -0.000001 0.346926
vn -0.937881 0.000002 0.346957
vn -0.937881 0.000000 0.346957
vn 0.000002 -1.000000 -0.000001
vn 0.000003 -1.000000 0.000002
vn -0.928396 -0.000123 -0.371592
vn -0.928408 -0.000024 -0.371563
vn -0.928411 0.000000 -0.371556
vn -0.928399 -0.000098 -0.371585
vn 0.929359 0.000000 -0.369177
vn 0.929337 0.000182 -0.369232
vn 0.929332 0.000227 -0.369245
vn 0.929354 0.000045 -0.369191
vn -0.000004 -1.000000 0.000000
vn 0.000026 0.000092 -1.000000
vn 0.000099 -0.000164 -1.000000
vn 0.000115 -0.000219 -1.000000
vn 0.000042 0.000037 -1.000000
vn -0.000176 -0.000119 1.000000
vn -0.000068 0.000201 1.000000
vn -0.000040 0.000285 1.000000
vn -0.000148 -0.000036 1.000000
vn -0.945405 -0.000148 -0.325899
vn -0.945414 -0.000093 -0.325871
vn -0.945418 -0.000068 -0.325859
vn -0.945409 -0.000123 -0.325887
vn 0.945414 0.000294 -0.325870
vn 0.945433 0.000185 -0.325816
vn 0.945442 0.000137 -0.325792
vn 0.945423 0.000245 -0.325846
vn 0.000035 0.000055 -1.000000
vn 0.000051 0.000015 -1.000000
vn 0.000121 -0.000026 -1.000000
vn 0.000102 0.000015 -1.000000
vn 0.000048 -0.000045 -1.000000
vn 0.000122 -0.000088 -1.000000
vn 0.000067 -0.000088 -1.000000
vn 0.000143 -0.000132 -1.000000
vn 1.000000 -0.000110 -0.000559
vn 0.999982 -0.000002 -0.006048
vn -0.999982 0.000002 -0.006048
vn -0.999997 -0.000049 -0.002221
vn -1.000000 0.000002 0.000536
vn 1.000000 -0.000002 0.000536
vn -0.000111 0.000000 -1.000000
vn 0.000111 0.000000 -1.000000
vn -0.000002 -1.000000 0.000000
vn 0.018324 -0.000001 -0.999832
vn 0.018501 0.000006 -0.999829
vn 0.018506 0.000006 -0.999829
vn 0.018329 -0.000001 -0.999832
vn -0.000002 -1.000000 -0.000003
vn -0.000003 -1.000000 -0.000004
# 110 vertex normals

vt -1.972416 1.693111 0.416737
vt -2.315473 1.693111 0.416737
vt -2.315473 -0.693110 0.000836
vt -1.972416 -0.693110 0.000836
vt 3.315473 -0.693110 0.999500
vt 3.315473 1.693111 0.583558
vt 2.972416 1.693111 0.583558
vt 2.972416 -0.693110 0.999500
vt 0.416737 2.972416 1.693111
vt 0.583558 2.972416 1.693111
vt 0.583558 3.315473 1.693111
vt 0.416737 3.315473 1.693111
vt 0.540452 1.023455 2.972416
vt 0.539491 0.941659 2.972416
vt 0.624574 0.941653 2.972416
vt 0.540693 1.522691 2.972416
vt 0.416442 1.693111 3.315473
vt 0.459307 1.522691 3.315473
vt 0.540356 1.522691 3.315473
vt 0.583263 1.693111 3.315473
vt 0.000500 -0.693110 3.315473
vt 0.083628 -0.693110 3.315473
vt 0.248335 0.186667 3.315473
vt 0.287266 0.398556 3.315473
vt 0.375444 0.941640 3.315473
vt 0.624172 0.941710 3.315473
vt 0.999164 -0.693110 3.315473
vt 0.712368 0.398714 3.315473
vt 0.751307 0.186793 3.315473
vt 0.917234 -0.693110 3.315473
vt 0.000836 -0.693110 2.972416
vt 0.082769 -0.693110 2.972416
vt 0.248699 0.186724 2.972416
vt 0.416737 1.693111 2.972416
vt 0.287641 0.398632 2.972416
vt 0.375834 0.941672 2.972416
vt 0.459644 1.522691 2.972416
vt 0.583558 1.693111 2.972416
vt 0.999500 -0.693110 2.972416
vt 0.712773 0.398594 2.972416
vt 0.751695 0.186699 2.972416
vt 0.916372 -0.693110 2.972416
vt 2.972416 0.186724 0.248699
vt 2.972416 -0.693110 0.082769
vt 3.315473 -0.693110 0.082766
vt 3.315473 0.186793 0.248693
vt 0.917231 2.972416 -0.693110
vt 0.999164 2.972416 -0.693110
vt 0.999164 3.315473 -0.693110
vt 0.917234 3.315473 -0.693110
vt 0.083628 3.315473 -0.693110
vt 0.000500 3.315473 -0.693110
vt 0.000500 2.972416 -0.693110
vt 0.083628 2.972416 -0.693110
vt -1.972416 -0.693110 0.916372
vt -1.972416 0.186699 0.751695
vt -2.315473 0.186667 0.751665
vt -2.315473 -0.693110 0.916372
vt 0.459733 1.020311 2.972416
vt 0.459754 0.941666 2.972416
vt 0.540484 1.020330 3.315473
vt 0.540517 0.941684 3.315473
vt 0.460737 1.020311 3.315473
vt 0.461097 0.941659 3.315473
vt 0.526019 0.800576 0.000499
vt 0.473172 0.800576 0.000537
vt 0.473257 0.800576 0.999500
vt 0.526967 0.800576 0.999500
vt 0.248305 2.972416 0.186699
vt 0.751301 2.972416 0.186724
vt 0.751307 3.315473 0.186793
vt 0.248335 3.315473 0.186667
vt 0.712734 3.315473 0.398556
vt 0.287632 3.315473 0.398714
vt 0.287641 2.972416 0.398632
vt 0.712773 2.972416 0.398594
vt 3.315473 0.398714 0.287632
vt 3.315473 0.941710 0.375828
vt 2.972416 0.941672 0.375834
vt 2.972416 0.398632 0.287641
vt -1.972416 0.398594 0.712773
vt -1.972416 0.941653 0.624574
vt -2.315473 0.941640 0.624556
vt -2.315473 0.398556 0.712734
vt 0.375426 2.972416 0.941653
vt 0.460509 2.972416 0.941659
vt 0.461097 3.315473 0.941659
vt 0.375444 3.315473 0.941640
vt 0.540246 2.972416 0.941666
vt 0.540517 3.315473 0.941684
vt 0.624166 2.972416 0.941672
vt 0.624172 3.315473 0.941710
vt -1.971746 1.693111 0.583263
vt -2.315474 1.693111 0.583263
vt -2.315474 -0.693110 0.999167
vt -1.971746 -0.693110 0.999167
vt 3.315473 -0.693110 0.000500
vt 3.315474 1.693111 0.416442
vt 2.971746 1.693111 0.416442
vt 2.971746 -0.693110 0.000500
vt 0.583263 -1.971746 1.693111
vt 0.416442 -1.971746 1.693111
vt 0.416442 -2.315474 1.693111
vt 0.583263 -2.315474 1.693111
vt 0.539729 1.020311 -1.971746
vt 0.539491 0.941659 -1.971746
vt 0.624574 0.941653 -1.971746
vt 0.540693 1.522691 -1.971746
vt 0.416442 1.693111 -2.315474
vt 0.459307 1.522691 -2.315474
vt 0.540359 1.522691 -2.315474
vt 0.583263 1.693111 -2.315474
vt 0.000500 -0.693110 -2.315473
vt 0.083628 -0.693110 -2.315473
vt 0.248335 0.186667 -2.315474
vt 0.287266 0.398556 -2.315474
vt 0.375444 0.941640 -2.315474
vt 0.624172 0.941710 -2.315474
vt 0.999167 -0.693110 -2.315474
vt 0.712371 0.398714 -2.315474
vt 0.751307 0.186793 -2.315474
vt 0.917234 -0.693110 -2.315474
vt 0.000833 -0.693110 -1.971746
vt 0.082766 -0.693110 -1.971746
vt 0.248698 0.186724 -1.971746
vt 0.416737 1.693111 -1.971746
vt 0.287638 0.398632 -1.971746
vt 0.375831 0.941672 -1.971746
vt 0.459641 1.522691 -1.971746
vt 0.583558 1.693111 -1.971746
vt 0.999500 -0.693110 -1.971746
vt 0.712773 0.398594 -1.971746
vt 0.751695 0.186699 -1.971746
vt 0.916372 -0.693110 -1.971746
vt 2.971746 0.186724 0.751302
vt 2.971746 -0.693110 0.917234
vt 3.315474 -0.693110 0.917234
vt 3.315474 0.186793 0.751307
vt 0.082766 -1.971746 -0.693110
vt 0.000833 -1.971746 -0.693110
vt 0.000833 -2.315474 -0.693110
vt 0.082766 -2.315474 -0.693110
vt 0.916372 -2.315473 -0.693110
vt 0.999500 -2.315473 -0.693110
vt 0.999500 -1.971746 -0.693110
vt 0.916372 -1.971746 -0.693110
vt -1.971746 -0.693110 0.083628
vt -1.971746 0.186699 0.248305
vt -2.315474 0.186667 0.248335
vt -2.315473 -0.693110 0.083628
vt 0.459664 1.023455 -1.971746
vt 0.459754 0.941666 -1.971746
vt 0.540484 1.020330 -2.315474
vt 0.540517 0.941684 -2.315474
vt 0.460738 1.020311 -2.315474
vt 0.461097 0.941659 -2.315474
vt 0.473981 0.199424 0.000499
vt 0.526828 0.199424 0.000537
vt 0.526743 0.199424 0.999500
vt 0.473033 0.199424 0.999500
vt 0.751695 -1.971746 0.186699
vt 0.248698 -1.971746 0.186724
vt 0.248693 -2.315474 0.186793
vt 0.751665 -2.315474 0.186667
vt 0.287266 -2.315474 0.398556
vt 0.712371 -2.315474 0.398714
vt 0.712362 -1.971746 0.398632
vt 0.287227 -1.971746 0.398594
vt 3.315474 0.398714 0.712371
vt 3.315474 0.941710 0.624172
vt 2.971746 0.941672 0.624169
vt 2.971746 0.398632 0.712362
vt -1.971746 0.398594 0.287227
vt -1.971746 0.941653 0.375426
vt -2.315474 0.941640 0.375444
vt -2.315474 0.398556 0.287266
vt 0.624574 -1.971746 0.941653
vt 0.539491 -1.971746 0.941659
vt 0.538903 -2.315474 0.941659
vt 0.624556 -2.315474 0.941640
vt 0.459754 -1.971746 0.941666
vt 0.459483 -2.315474 0.941684
vt 0.375831 -1.971746 0.941672
vt 0.375828 -2.315474 0.941710
vt 0.526745 0.268084 0.999500
vt 0.526966 0.731979 0.999500
vt 0.473257 0.731979 0.999500
vt 0.473034 0.268084 0.999500
vt 2.991815 0.006750 0.996543
vt 2.991815 0.999501 0.999499
vt -1.991139 0.999501 0.995405
vt -1.991139 0.006750 0.995113
vt 0.526966 0.764167 0.999500
vt 0.473257 0.764167 0.999500
vt 3.728654 0.000499 0.981941
vt 3.728654 0.999501 0.999500
vt 3.337563 0.999501 0.999500
vt 3.337563 0.000499 0.981941
vt 0.473034 0.235833 0.999500
vt 0.526745 0.235833 0.999500
vt 3.728654 0.000499 0.018060
vt 3.728654 0.999501 0.000500
vt 3.337563 0.999501 0.000500
vt 3.337563 0.000499 0.018060
vt -1.991815 0.999501 0.004632
vt -1.991815 0.000499 0.005727
vt 2.991139 0.000499 0.012329
vt 2.991139 0.999501 0.000501
vt -2.728654 0.999501 0.004633
vt -2.728654 0.000537 0.003063
vt -2.337563 0.000537 0.003063
vt -2.337563 0.999501 0.004633
vt -2.728654 0.999501 0.995368
vt -2.728654 0.000537 0.996938
vt -2.337563 0.000537 0.996938
vt -2.337563 0.999501 0.995404
vt 0.526019 0.764167 0.000499
vt 0.473172 0.764167 0.000537
vt 0.473982 0.235833 0.000499
vt 0.526828 0.235833 0.000537
vt 0.526807 0.731979 0.006750
vt 0.526730 0.268084 0.006750
vt 0.473672 0.268084 0.000499
vt 0.473316 0.731979 0.000499
# 224 texture coords

g Barrier1
usemtl barrierS
s 2
f 1/1/1 2/2/1 3/3/2 4/4/2 
s 4
f 5/5/3 6/6/3 7/7/3 8/8/3 
s 32
f 1/9/4 7/10/4 6/11/4 2/12/4 
s 64
f 9/13/5 10/14/6 11/15/5 12/16/7 
s off
f 6/17/8 13/18/8 14/19/8 2/20/8 
f 5/21/9 15/22/9 16/23/9 6/17/9 
f 16/23/10 17/24/10 18/25/10 6/17/10 
f 6/17/8 18/25/8 13/18/8 
f 2/20/11 14/19/11 19/26/11 3/27/11 
f 19/26/12 20/28/12 21/29/12 3/27/12 
f 22/30/11 3/27/11 21/29/11 
f 4/31/13 23/32/13 24/33/13 1/34/13 
f 24/33/7 25/35/7 26/36/7 1/34/7 
f 1/34/7 26/36/7 27/37/7 
f 7/38/7 12/16/7 11/15/7 8/39/7 
f 11/15/14 28/40/14 29/41/14 8/39/14 
f 30/42/7 8/39/7 29/41/7 
f 1/34/15 27/37/15 12/16/15 7/38/15 
s 16
f 21/29/16 20/28/11 17/24/10 16/23/11 
s 64
f 29/41/17 28/40/7 25/35/18 24/33/18 
s 6
f 24/43/19 23/44/20 22/45/21 21/46/22 
s 1
f 23/47/23 4/48/23 3/49/23 22/50/23 
f 15/51/23 5/52/23 8/53/23 30/54/23 
s 6
f 30/55/24 29/56/25 16/57/26 15/58/27 
s 64
f 31/59/7 27/37/7 26/36/7 32/60/7 
s 16
f 33/61/28 34/62/28 19/26/28 14/19/29 
f 35/63/28 13/18/9 18/25/28 36/64/28 
usemtl barrier3
f 37/65/11 38/66/30 39/67/31 40/68/32 
usemtl barrierS
s 1
f 29/69/33 24/70/34 21/71/35 16/72/36 
f 17/73/37 20/74/38 25/75/39 28/76/40 
s 2
f 20/77/41 19/78/42 26/79/43 25/80/44 
f 28/81/45 11/82/46 18/83/47 17/84/48 
s 1
f 11/85/49 10/86/50 36/87/51 18/88/52 
f 10/86/50 32/89/53 34/90/54 36/87/51 
f 32/89/53 26/91/55 19/92/56 34/90/54 
s 2
f 41/93/57 42/94/57 43/95/58 44/96/58 
s 4
f 45/97/59 46/98/60 47/99/60 48/100/59 
s 32
f 41/101/4 47/102/4 46/103/4 42/104/4 
s 64
f 49/105/11 50/106/11 51/107/11 52/108/11 
s off
f 46/109/13 53/110/13 54/111/13 42/112/13 
f 45/113/61 55/114/61 56/115/61 46/109/61 
f 56/115/7 57/116/7 58/117/7 46/109/7 
f 46/109/7 58/117/7 53/110/7 
f 42/112/7 54/111/7 59/118/7 43/119/7 
f 59/118/7 60/120/7 61/121/7 43/119/7 
f 62/122/62 43/119/62 61/121/62 
f 44/123/11 63/124/11 64/125/11 41/126/11 
f 64/125/11 65/127/11 66/128/11 41/126/11 
f 41/126/11 66/128/11 67/129/11 
f 47/130/11 52/108/11 51/107/11 48/131/11 
f 51/107/11 68/132/11 69/133/11 48/131/11 
f 70/134/11 48/131/11 69/133/11 
f 41/126/30 67/129/30 52/108/30 47/130/30 
s 16
f 61/121/7 60/120/7 57/116/7 56/115/7 
s 64
f 69/133/11 68/132/11 65/127/11 64/125/11 
s 6
f 64/135/63 63/136/64 62/137/65 61/138/66 
s 1
f 63/139/23 44/140/23 43/141/23 62/142/23 
f 55/143/23 45/144/23 48/145/23 70/146/23 
s 6
f 70/147/67 69/148/68 56/149/69 55/150/70 
s 64
f 71/151/11 67/129/11 66/128/11 72/152/11 
s 16
f 73/153/7 74/154/7 59/118/7 54/111/7 
f 75/155/7 53/110/7 58/117/7 76/156/7 
usemtl barrier3
f 77/157/71 78/158/71 79/159/71 80/160/71 
usemtl barrierS
s 1
f 69/161/72 64/162/73 61/163/74 56/164/75 
f 57/165/76 60/166/77 65/167/78 68/168/79 
s 2
f 60/169/80 59/170/81 66/171/82 65/172/83 
f 68/173/84 51/174/85 58/175/86 57/176/87 
s 1
f 51/177/88 50/178/89 76/179/90 58/180/91 
f 50/178/89 72/181/92 74/182/93 76/179/90 
f 72/181/92 66/183/94 59/184/95 74/182/93 
usemtl barrier3
s off
f 67/185/4 12/186/4 27/187/4 52/188/4 
f 9/189/96 12/190/96 67/191/96 71/192/96 
f 13/193/4 40/68/4 39/67/4 14/194/4 
f 37/195/97 40/196/97 13/197/97 35/198/97 
f 53/199/4 80/160/4 79/159/4 54/200/4 
f 77/201/98 80/202/98 53/203/98 75/204/98 
f 27/205/99 31/206/99 49/207/99 52/208/99 
f 39/209/100 38/210/100 33/211/100 14/212/100 
f 79/213/101 78/214/101 73/215/101 54/216/101 
s 1
f 37/65/102 35/217/102 33/218/102 38/66/102 
usemtl barrierS
s 2
f 34/62/11 33/61/11 35/63/11 36/64/11 
usemtl barrier3
s 1
f 77/157/103 75/219/103 73/220/103 78/158/103 
usemtl barrierS
s 2
f 74/154/104 73/153/104 75/155/104 76/156/104 
usemtl barrier3
s 1
f 9/221/105 71/222/106 49/223/107 31/224/108 
usemtl barrierS
s 2
f 72/152/28 50/106/28 49/105/28 71/151/28 
f 31/59/14 32/60/13 10/14/109 9/13/110 
# 78 polygons - 8 triangles

#
# object Barrier1
#

v  -0.040655 -0.103212 -0.043333
v  -0.040655 0.103212 -0.043333
v  0.040655 0.103212 -0.043160
v  0.040655 -0.103212 -0.043160
v  -0.006482 -0.103212 0.043121
v  0.007740 -0.103212 0.043121
v  0.007740 0.103212 0.043121
v  -0.006482 0.103212 0.043121
# 8 vertices

vn 0.002138 -0.000000 -0.999998
vn 0.002138 0.000000 -0.999998
vn 0.000000 0.000000 1.000000
vn 0.000000 -1.000000 0.000000
vn 0.934321 0.000000 0.356433
vn 0.000000 1.000000 0.000000
vn -0.929986 0.000000 0.367594
# 7 vertex normals

vt 1.000000 0.000000 0.000000
vt 1.000000 1.000000 0.000000
vt 0.000000 1.000000 0.000000
vt 0.000000 0.000000 0.000000
# 4 texture coords

g Barrier1
usemtl _common_Stone
s 2
f 81/225/111 82/226/111 83/227/111 84/228/112 
s 4
f 85/228/113 86/225/113 87/226/113 88/227/113 
s 8
f 81/228/114 84/225/114 86/226/114 85/227/114 
s 16
f 84/228/115 83/225/115 87/226/115 86/227/115 
s 32
f 83/228/116 82/225/116 88/226/116 87/227/116 
s 64
f 82/228/117 81/225/117 85/226/117 88/227/117 
# 6 polygons

