# 3ds Max Wavefront OBJ Exporter v0.97b - (c)2007 guruware
# File Created: 01.02.2011 16:03:50

mtllib street_barrier2.mtl

#
# object Box02
#

v  -0.404567 0.793907 0.005985
v  -0.264725 0.793907 0.384039
v  -0.264725 0.842000 0.384039
v  -0.404567 0.842000 0.005985
v  -0.068777 0.793907 0.005985
v  -0.068777 0.842000 0.005985
v  -0.208633 0.842000 0.384039
v  -0.208633 0.793907 0.384039
v  -0.194842 0.793907 0.264984
v  -0.223046 0.793907 0.357039
v  -0.223127 0.793907 0.277944
v  -0.223450 0.793907 0.264985
v  -0.223046 0.842000 0.357039
v  -0.250298 0.842000 0.357039
v  -0.096728 0.842000 0.005985
v  -0.152109 0.842000 0.145370
v  -0.165199 0.842000 0.178940
v  -0.194848 0.842000 0.264982
v  -0.278480 0.842000 0.264993
v  -0.308135 0.842000 0.178965
v  -0.321228 0.842000 0.145390
v  -0.377019 0.842000 0.005985
v  -0.377018 0.793907 0.005985
v  -0.321226 0.793907 0.145379
v  -0.308132 0.793907 0.178952
v  -0.278478 0.793907 0.264987
v  -0.250298 0.793907 0.357039
v  -0.165186 0.793907 0.178946
v  -0.152099 0.793907 0.145375
v  -0.096728 0.793907 0.005985
v  -0.250261 0.793907 0.264986
v  -0.250268 0.793907 0.277446
v  -0.250341 0.842000 0.277449
v  -0.250352 0.842000 0.264989
v  -0.223648 0.842000 0.264985
v  -0.223527 0.842000 0.277446
v  -0.223046 0.896400 0.357039
v  -0.223527 0.896400 0.277446
v  -0.250341 0.896400 0.277449
v  -0.250298 0.896400 0.357039
v  -0.068889 0.100787 0.005985
v  -0.208732 0.100787 0.384039
v  -0.208732 0.052600 0.384039
v  -0.068889 0.052600 0.005985
v  -0.404680 0.100787 0.005985
v  -0.404680 0.052600 0.005985
v  -0.264824 0.052600 0.384039
v  -0.264824 0.100787 0.384039
v  -0.278615 0.100787 0.264984
v  -0.250411 0.100787 0.357039
v  -0.250087 0.100787 0.277446
v  -0.250007 0.100787 0.264985
v  -0.250411 0.052600 0.357039
v  -0.223158 0.052600 0.357039
v  -0.376729 0.052600 0.005985
v  -0.321348 0.052600 0.145370
v  -0.308258 0.052600 0.178940
v  -0.278609 0.052600 0.264982
v  -0.194977 0.052600 0.264993
v  -0.165321 0.052600 0.178965
v  -0.152229 0.052600 0.145390
v  -0.096438 0.052600 0.005985
v  -0.096438 0.100787 0.005985
v  -0.152231 0.100787 0.145379
v  -0.165324 0.100787 0.178952
v  -0.194978 0.100787 0.264987
v  -0.223158 0.100787 0.357039
v  -0.308271 0.100787 0.178946
v  -0.321358 0.100787 0.145375
v  -0.376729 0.100787 0.005985
v  -0.223196 0.100787 0.264986
v  -0.223166 0.100787 0.277944
v  -0.223116 0.052600 0.277449
v  -0.223105 0.052600 0.264989
v  -0.249809 0.052600 0.264985
v  -0.249930 0.052600 0.277446
v  -0.250411 -0.001800 0.357039
v  -0.249930 -0.001800 0.277446
v  -0.223116 -0.001800 0.277449
v  -0.223159 -0.001800 0.357039
# 80 vertices

vn -0.937892 0.000000 0.346926
vn -0.937892 -0.000001 0.346926
vn 0.937881 0.000000 0.346957
vn -0.000000 0.000000 1.000000
vn -0.000001 -1.000000 -0.000001
vn -0.000000 -1.000000 0.000000
vn -0.000002 -1.000000 -0.000004
vn 0.000003 1.000000 0.000001
vn 0.000002 1.000000 0.000001
vn 0.000000 1.000000 0.000001
vn -0.000000 1.000000 0.000000
vn 0.000003 1.000000 -0.000002
vn 0.000000 1.000000 0.000000
vn -0.000001 -1.000000 0.000000
vn 0.000000 -1.000000 -0.000000
vn 0.000000 -1.000000 0.000000
vn -0.000000 -1.000000 -0.000000
vn -0.000002 -1.000000 -0.000001
vn -0.000003 -1.000000 -0.000000
vn -0.000000 1.000000 -0.000001
vn -0.000000 1.000000 -0.000000
vn -0.000000 -1.000000 0.000001
vn -0.000000 -1.000000 -0.000001
vn 0.928399 0.000099 -0.371585
vn 0.928396 0.000123 -0.371592
vn 0.928408 0.000025 -0.371563
vn 0.928411 0.000000 -0.371556
vn 0.000000 -0.000000 -1.000000
vn -0.929354 -0.000045 -0.369191
vn -0.929359 -0.000000 -0.369177
vn -0.929337 -0.000183 -0.369232
vn -0.929332 -0.000228 -0.369245
vn 0.000002 1.000000 -0.000000
vn 0.000002 1.000000 -0.000001
vn 0.000002 1.000000 0.000000
vn 0.000003 1.000000 -0.000001
vn 0.000001 1.000000 0.000000
vn 0.000004 1.000000 -0.000001
vn -0.000042 -0.000037 -1.000000
vn -0.000026 -0.000092 -1.000000
vn -0.000099 0.000165 -1.000000
vn -0.000115 0.000219 -1.000000
vn 0.000148 0.000036 1.000000
vn 0.000176 0.000119 1.000000
vn 0.000068 -0.000202 1.000000
vn 0.000040 -0.000285 1.000000
vn 0.945409 0.000124 -0.325887
vn 0.945405 0.000148 -0.325899
vn 0.945414 0.000094 -0.325872
vn 0.945418 0.000070 -0.325860
vn -0.945423 -0.000245 -0.325846
vn -0.945414 -0.000294 -0.325870
vn -0.945433 -0.000185 -0.325816
vn -0.945442 -0.000137 -0.325792
vn -0.000102 -0.000016 -1.000000
vn -0.000035 -0.000055 -1.000000
vn -0.000051 -0.000015 -1.000000
vn -0.000121 0.000026 -1.000000
vn -0.000048 0.000045 -1.000000
vn -0.000122 0.000088 -1.000000
vn -0.000067 0.000088 -1.000000
vn -0.000143 0.000132 -1.000000
vn 0.937892 -0.000001 0.346926
vn 0.937892 0.000000 0.346926
vn 0.937892 -0.000000 0.346926
vn -0.937881 0.000002 0.346957
vn -0.937881 0.000000 0.346957
vn -0.937881 -0.000000 0.346957
vn 0.000002 -1.000000 -0.000001
vn 0.000003 -1.000000 0.000002
vn 0.000001 1.000000 -0.000000
vn 0.000000 1.000000 -0.000000
vn -0.928399 -0.000098 -0.371585
vn -0.928396 -0.000123 -0.371592
vn -0.928408 -0.000024 -0.371563
vn -0.928411 0.000000 -0.371556
vn 0.929354 0.000045 -0.369191
vn 0.929359 -0.000000 -0.369177
vn 0.929337 0.000182 -0.369232
vn 0.929332 0.000227 -0.369245
vn -0.000004 -1.000000 -0.000000
vn 0.000042 0.000037 -1.000000
vn 0.000026 0.000092 -1.000000
vn 0.000099 -0.000164 -1.000000
vn 0.000115 -0.000219 -1.000000
vn -0.000148 -0.000036 1.000000
vn -0.000176 -0.000119 1.000000
vn -0.000068 0.000201 1.000000
vn -0.000040 0.000285 1.000000
vn -0.945409 -0.000123 -0.325887
vn -0.945405 -0.000148 -0.325899
vn -0.945414 -0.000093 -0.325871
vn -0.945418 -0.000068 -0.325859
vn 0.945423 0.000245 -0.325846
vn 0.945414 0.000294 -0.325870
vn 0.945433 0.000185 -0.325816
vn 0.945442 0.000137 -0.325792
vn 0.000102 0.000015 -1.000000
vn 0.000035 0.000055 -1.000000
vn 0.000051 0.000015 -1.000000
vn 0.000121 -0.000026 -1.000000
vn 0.000048 -0.000045 -1.000000
vn 0.000122 -0.000088 -1.000000
vn 0.000067 -0.000088 -1.000000
vn 0.000143 -0.000132 -1.000000
vn 1.000000 -0.000110 -0.000559
vn 0.999982 -0.000002 -0.006048
vn -0.999982 0.000002 -0.006048
vn -0.999997 -0.000049 -0.002221
vn -1.000000 0.000002 0.000536
vn 1.000000 -0.000002 0.000536
vn -0.000111 0.000000 -1.000000
vn 0.000111 -0.000000 -1.000000
vn -0.000002 -1.000000 -0.000000
vn 0.018329 -0.000001 -0.999832
vn 0.018324 -0.000001 -0.999832
vn 0.018501 0.000006 -0.999829
vn 0.018506 0.000006 -0.999829
vn -0.000001 -1.000000 -0.000000
vn -0.000002 -1.000000 -0.000003
vn -0.000003 -1.000000 -0.000004
# 121 vertex normals

vt 1.000000 0.000000 0.000000
vt 1.000000 1.000000 0.000000
vt 0.000000 1.000000 0.000000
vt 0.000000 0.000000 0.000000
vt 0.213257 1.000000 0.000000
vt 0.042588 0.934852 0.000000
vt 0.212939 0.674259 0.000000
vt 0.035511 0.889723 0.000000
vt 0.381870 1.000000 0.000000
vt 0.495935 1.000000 0.000000
vt 0.788293 1.000000 0.000000
vt 0.788329 0.000000 0.000000
vt 0.496020 0.000000 0.000000
vt 0.381936 0.000000 0.000000
vt -0.087211 0.000000 0.000000
vt 1.000000 -0.073690 0.000000
vt 0.619181 0.000000 0.000000
vt 0.505429 0.000000 0.000000
vt 0.212280 0.000000 0.000000
vt 0.507755 1.000000 0.000000
vt 0.620971 1.000000 0.000000
vt 1.052208 0.964394 0.000000
vt 0.212594 0.320765 0.000000
vt 0.170075 0.256612 0.000000
vt 0.830654 0.255679 0.000000
vt 0.788317 0.319598 0.000000
vt 0.788304 0.671710 0.000000
vt 0.830644 0.737368 0.000000
vt 0.000000 0.082042 0.000000
vt 0.000000 0.916761 0.000000
vt 1.000000 0.082042 0.000000
vt 1.000000 0.916761 0.000000
vt 0.170351 0.739407 0.000000
vt 0.042519 0.064153 0.000000
vt 0.000000 0.003947 0.000000
vt 0.000000 1.003947 0.000000
vt 0.042521 0.064157 0.000000
vt 0.000002 0.000004 0.000000
vt 0.000003 0.999995 0.000000
vt 0.170354 0.739402 0.000000
# 40 texture coords

g Box02
usemtl 01___Default
s 2
f 1/1/1 2/2/2 3/3/2 4/4/1 
s 4
f 5/4/3 6/1/3 7/2/3 8/3/3 
s 32
f 3/4/4 2/1/4 8/2/4 7/3/4 
s 64
f 9/5/5 10/3/6 11/6/5 12/7/7 
s off
f 3/4/8 7/3/8 13/2/8 14/1/8 
f 7/2/9 6/1/9 15/8/9 16/9/9 
f 7/2/10 16/9/10 17/10/10 18/11/10 
f 7/2/8 18/11/8 13/2/8 
f 4/4/11 3/3/11 14/1/11 19/12/11 
f 4/4/12 19/12/12 20/13/12 21/14/12 
f 22/15/13 4/4/13 21/14/13 
f 2/2/14 1/1/14 23/16/14 24/17/14 
f 2/2/15 24/17/15 25/18/15 26/19/15 
f 2/2/16 26/19/16 27/4/16 
f 5/4/17 8/3/17 10/3/17 9/5/17 
f 5/4/18 9/5/18 28/20/18 29/21/18 
f 30/22/6 5/4/6 29/21/6 
f 8/2/19 2/1/19 27/4/19 10/3/19 
s 16
f 16/9/13 21/14/20 20/13/21 17/10/10 
s 64
f 24/17/22 29/21/23 28/20/17 25/18/22 
s 6
f 21/2/24 24/1/25 23/13/26 22/18/27 
s 1
f 22/18/28 23/13/28 1/1/28 4/4/28 
f 30/10/28 15/20/28 6/1/28 5/4/28 
s 6
f 15/20/29 30/10/30 29/4/31 16/3/32 
s 64
f 26/19/6 31/23/6 32/24/6 27/4/6 
s 16
f 19/12/33 14/1/34 33/25/33 34/26/33 
f 18/11/35 35/27/33 36/28/35 13/2/9 
f 37/2/36 38/28/13 39/25/37 40/1/38 
s 1
f 16/3/39 29/4/40 24/1/41 21/2/42 
f 28/3/43 17/4/44 20/1/45 25/2/46 
s 2
f 25/2/47 20/1/48 19/29/49 26/21/50 
f 17/4/51 28/3/52 9/17/53 18/30/54 
s 1
f 18/30/55 9/17/56 12/9/57 35/31/58 
f 35/31/58 12/9/57 31/14/59 34/32/60 
f 34/32/60 31/14/59 26/21/61 19/29/62 
s 2
f 41/1/63 42/2/64 43/3/65 44/4/63 
s 4
f 45/4/66 46/1/66 47/2/67 48/3/68 
s 32
f 43/4/4 42/1/4 48/2/4 47/3/4 
s 64
f 49/5/13 50/3/13 51/33/13 52/7/13 
s off
f 43/4/14 47/3/14 53/2/14 54/1/14 
f 47/2/69 46/1/69 55/8/69 56/9/69 
f 47/2/6 56/9/6 57/10/6 58/11/6 
f 47/2/6 58/11/6 53/2/6 
f 44/4/6 43/3/6 54/1/6 59/12/6 
f 44/4/6 59/12/6 60/13/6 61/14/6 
f 62/15/70 44/4/70 61/14/70 
f 42/2/13 41/1/13 63/16/13 64/17/13 
f 42/2/13 64/17/13 65/18/13 66/19/13 
f 42/2/13 66/19/13 67/4/13 
f 45/4/13 48/3/13 50/3/13 49/5/13 
f 45/4/13 49/5/13 68/20/13 69/21/13 
f 70/22/13 45/4/13 69/21/13 
f 48/2/71 42/1/71 67/4/71 50/3/71 
s 16
f 56/9/6 61/14/17 60/13/17 57/10/6 
s 64
f 64/17/13 69/21/72 68/20/72 65/18/13 
s 6
f 61/2/73 64/1/74 63/13/75 62/18/76 
s 1
f 62/18/28 63/13/28 41/1/28 44/4/28 
f 70/10/28 55/20/28 46/1/28 45/4/28 
s 6
f 55/20/77 70/10/78 69/4/79 56/3/80 
s 64
f 66/19/13 71/23/13 72/34/13 67/4/13 
s 16
f 59/12/6 54/1/6 73/25/6 74/26/6 
f 58/11/6 75/27/6 76/28/6 53/2/6 
f 77/2/81 78/28/81 79/25/81 80/1/81 
s 1
f 56/3/82 69/4/83 64/1/84 61/2/85 
f 68/3/86 57/4/87 60/1/88 65/2/89 
s 2
f 65/2/90 60/1/91 59/29/92 66/21/93 
f 57/4/94 68/3/95 49/17/96 58/30/97 
s 1
f 58/30/98 49/17/99 52/9/100 75/31/101 
f 75/31/101 52/9/100 71/14/102 74/32/103 
f 74/32/103 71/14/102 66/21/104 59/29/105 
s off
f 50/3/4 67/4/4 10/35/4 27/36/4 
f 72/34/106 11/37/106 10/38/106 67/4/106 
f 14/1/4 13/2/4 37/2/4 40/1/4 
f 36/28/107 38/28/107 37/2/107 13/2/107 
f 54/1/4 53/2/4 77/2/4 80/1/4 
f 76/28/108 78/28/108 77/2/108 53/2/108 
f 50/3/109 27/39/109 32/40/109 51/33/109 
f 14/1/110 40/1/110 39/25/110 33/25/110 
f 54/1/111 80/1/111 79/25/111 73/25/111 
s 1
f 39/7/112 38/23/112 36/30/112 33/29/112 
s 2
f 35/31/13 34/32/13 33/29/13 36/30/13 
s 1
f 79/7/113 78/23/113 76/31/113 73/32/113 
s 2
f 75/2/114 74/3/114 73/32/114 76/31/114 
s 1
f 32/21/115 11/17/116 72/30/117 51/29/118 
s 2
f 71/2/35 52/3/35 51/29/35 72/30/33 
f 32/21/18 31/14/119 12/9/120 11/17/121 
# 78 polygons - 8 triangles

#
# object Box01
#

v  -0.250343 0.726249 0.329088
v  -0.250343 0.584828 0.470510
v  -0.250343 0.443406 0.329088
v  -0.250343 0.584828 0.187667
v  -0.264643 0.726249 0.329088
v  -0.264643 0.584828 0.187667
v  -0.264643 0.443406 0.329088
v  -0.264643 0.584828 0.470510
# 8 vertices

vn 1.000000 -0.000000 0.000000
vn -1.000000 0.000000 -0.000000
vn 0.000000 0.707107 -0.707107
vn -0.000000 -0.707107 -0.707107
vn -0.000000 -0.707107 0.707107
vn 0.000000 0.707107 0.707107
# 6 vertex normals

vt 1.000000 0.000000 0.000000
vt 1.000000 1.000000 0.000000
vt 0.000000 1.000000 0.000000
vt 0.000000 0.000000 0.000000
# 4 texture coords

g Box01
usemtl 01___Default
s 2
f 81/41/122 82/42/122 83/43/122 84/44/122 
s 4
f 85/44/123 86/41/123 87/42/123 88/43/123 
s 8
f 81/44/124 84/41/124 86/42/124 85/43/124 
s 16
f 84/44/125 83/41/125 87/42/125 86/43/125 
s 32
f 83/44/126 82/41/126 88/42/126 87/43/126 
s 64
f 82/44/127 81/41/127 85/42/127 88/43/127 
# 6 polygons

